<svg style="fill: currentColor;overflow: hidden;" viewBox="0 0 1024 1024" version="1.1" xmlns="http://www.w3.org/2000/svg">
  <path d="M512 64c-44.192 0-81.056 31.04-92 72C408.768 131.328 396.832 128 384 128c-52.64 0-96 43.36-96 96v314.016l-20.992-22.016-8-7.008a94.912 94.912 0 0 0-134.016 0 94.912 94.912 0 0 0 0 134.016v0.992l262.016 259.008 1.984 0.992 0.992 2.016c43.2 32.384 98.08 53.984 160 53.984h55.04a261.536 261.536 0 0 0 261.984-262.016V288c0-52.64-43.36-96-96-96-12.416 0-24.096 2.624-35.008 7.008V192c0-52.64-43.36-96-96-96-17.088 0-33.056 5.056-47.008 12.992A95.872 95.872 0 0 0 512 64z m0 64c17.76 0 32 14.24 32 32v256h64V192c0-17.76 14.24-32 32-32 17.76 0 32 14.24 32 32v96h3.008v160h64V288c0-17.76 14.24-32 32-32 17.728 0 32 14.24 32 32v410.016c0 110.912-87.072 197.984-198.016 197.984h-54.976c-46.88 0-87.392-16.768-121.024-42.016l-259.008-256c-14.272-14.272-14.272-29.696 0-44 14.304-14.272 29.76-14.272 44 0l83.008 83.008L352 692V224c0-17.76 14.24-32 32-32 17.76 0 32 14.24 32 32v224h64V160c0-17.76 14.24-32 32-32z m-8.992 392.992L456.96 567.04 529.984 640l-72.96 72.992 45.984 46.016L576 685.984l72.992 73.024 46.016-46.016L621.984 640l73.024-72.992-46.016-46.016L576 594.016l-72.992-73.024z"/>
</svg>
